<svg width="162" height="29" viewBox="0 0 162 29" fill="none" xmlns="http://www.w3.org/2000/svg">
<path d="M123.404 23.3633C123.404 24.5822 123.374 25.4464 123.314 25.956C123.259 26.4606 123.079 26.9227 122.774 27.3423C122.474 27.7619 122.067 28.0842 121.553 28.309C121.038 28.5338 120.439 28.6462 119.754 28.6462C119.105 28.6462 118.52 28.5413 118.001 28.3314C117.486 28.1166 117.072 27.7969 116.757 27.3723C116.442 26.9476 116.255 26.4855 116.195 25.986C116.135 25.4864 116.105 24.6122 116.105 23.3633V21.2876C116.105 20.0686 116.132 19.2069 116.187 18.7023C116.247 18.1927 116.427 17.7281 116.727 17.3085C117.032 16.8889 117.441 16.5667 117.956 16.3418C118.47 16.117 119.07 16.0046 119.754 16.0046C120.404 16.0046 120.986 16.112 121.5 16.3269C122.02 16.5367 122.437 16.8539 122.752 17.2785C123.066 17.7032 123.254 18.1653 123.314 18.6648C123.374 19.1644 123.404 20.0386 123.404 21.2876V23.3633ZM120.249 19.3767C120.249 18.8122 120.216 18.4525 120.152 18.2976C120.092 18.1378 119.964 18.0579 119.769 18.0579C119.604 18.0579 119.477 18.1228 119.387 18.2527C119.302 18.3776 119.26 18.7523 119.26 19.3767V25.0418C119.26 25.7462 119.287 26.1808 119.342 26.3457C119.402 26.5105 119.537 26.593 119.747 26.593C119.962 26.593 120.099 26.498 120.159 26.3082C120.219 26.1184 120.249 25.6663 120.249 24.9519V19.3767Z" fill="#1F1F1F"/>
<path d="M128.203 16.2594V28.3914H125.048V16.2594H128.203Z" fill="#1F1F1F"/>
<path d="M133.084 16.2594V25.9635H135.003V28.3914H129.93V16.2594H133.084Z" fill="#1F1F1F"/>
<path d="M146.924 16.2594L145.118 21.7372L147.096 28.3914H143.837L142.563 23.1909V28.3914H139.408V16.2594H142.563V20.9728L143.964 16.2594H146.924Z" fill="#1F1F1F"/>
<path d="M153.671 16.2594V18.6873L151.318 25.9635H153.671V28.3914H147.856V26.6304L150.284 18.6873H148.141V16.2594H153.671Z" fill="#1F1F1F"/>
<path d="M162 16.2594V28.3914H159.235L157.594 22.8762V28.3914H154.956V16.2594H157.594L159.362 21.7222V16.2594H162Z" fill="#1F1F1F"/>
<g clip-path="url(#clip0_12_9)">
<path d="M0.710946 28.5297H8.21413L10.0307 18.1838H11.1364L15.3224 28.5297H23.6944L18.4816 17.4C20.2192 16.773 21.7199 15.6757 22.7466 14.3432C24.0893 12.5405 24.4842 10.5811 24.4842 9.17027C24.4842 6.66215 23.2995 4.78107 21.4039 3.52702C19.5874 2.35134 17.218 2.03783 13.8218 2.03783H0.237061C0.000117764 1.95945 -0.0788629 2.35134 0.15808 2.5081L4.34407 4.3108C4.73897 4.38918 4.89693 4.78107 4.81795 5.09459L0.710946 28.5297ZM16.1122 12.4622C15.4014 13.0892 14.2957 13.4027 13.032 13.4027H10.8205L11.9262 7.28918H13.5059C14.3746 7.28918 15.4014 7.36756 16.1912 7.91622C16.902 8.38649 17.218 9.09189 17.218 10.0324C17.218 11.0514 16.823 11.8351 16.1122 12.4622Z" fill="#E4170F"/>
<path d="M41.307 1.56757C36.9631 1.56757 33.172 3.29189 30.4866 6.19189C27.7223 9.24865 26.5376 13.1676 26.5376 16.5378C26.5376 24.2973 32.5401 28.8432 39.6484 28.8432C43.9924 28.8432 47.7834 27.1189 50.4688 24.2189C53.2331 21.1622 54.4178 17.2432 54.4178 13.873C54.4178 6.19189 48.4943 1.64595 41.307 1.56757ZM44.6242 20.1432C43.5185 21.3973 41.9389 22.3378 39.8853 22.3378C36.2522 22.3378 34.1987 19.4378 34.1987 16.0676C34.1987 13.873 35.0675 11.6784 36.2522 10.2676C37.358 9.01351 38.9376 8.07297 40.9911 8.07297C44.6242 8.07297 46.6777 10.973 46.6777 14.3432C46.7567 16.6162 45.8089 18.8108 44.6242 20.1432Z" fill="#E4170F"/>
<path d="M59.7096 28.5297H67.5287C67.5287 28.5297 72.7414 17.5568 73.7682 15.2054H73.8471C74.0051 17.4784 75.1898 28.5297 75.1898 28.5297H83.1669L96.1197 2.03785H88.3796C88.3796 2.03785 81.9032 15.9108 80.8764 18.2622H80.7975C80.6395 15.9892 79.1389 2.03785 79.1389 2.03785H73.5312C73.5312 2.03785 66.8968 16.0676 65.949 18.2622H65.8701C65.7121 16.0676 64.4484 2.03785 64.4484 2.03785H52.2064C51.8904 2.03785 51.8115 2.42974 52.1274 2.50812L56.3134 4.31082C56.7083 4.3892 56.8662 4.78109 56.8662 5.0946L59.7096 28.5297Z" fill="#E4170F"/>
<path d="M114.285 8.38649L115.391 1.95946H98.3312L93.5924 28.5297H111.047L112.232 22.1027H102.438L103.149 18.2622H111.047L112.153 12.227H104.176L104.887 8.38649H114.285Z" fill="#E4170F"/>
<path d="M119.261 2.19459C119.261 0.940541 120.209 0 121.473 0C122.736 0 123.684 0.940541 123.684 2.19459C123.684 3.44865 122.736 4.38919 121.473 4.38919C120.209 4.38919 119.261 3.44865 119.261 2.19459ZM123.289 2.19459C123.289 1.17568 122.578 0.47027 121.552 0.47027C120.525 0.47027 119.814 1.25405 119.814 2.19459C119.814 3.21351 120.525 3.91892 121.552 3.91892C122.578 3.91892 123.289 3.13514 123.289 2.19459ZM121.473 2.50811H121.236V3.37027H120.683V1.01892H121.631C122.104 1.01892 122.578 1.25405 122.578 1.8027C122.578 2.11622 122.42 2.35135 122.104 2.50811L122.657 3.44865H121.946L121.473 2.50811ZM121.473 2.11622C121.71 2.11622 121.868 2.03784 121.868 1.8027C121.868 1.56757 121.71 1.48919 121.473 1.48919H121.157V2.11622H121.473Z" fill="#E4170F"/>
</g>
<defs>
<clipPath id="clip0_12_9">
<rect width="124" height="29" fill="white"/>
</clipPath>
</defs>
</svg>
