<svg width="163" height="38" viewBox="0 0 163 38" fill="none" xmlns="http://www.w3.org/2000/svg">
<g clip-path="url(#clip0_31_226)">
<path d="M0.931586 37.3838H10.7633L13.1437 23.827H14.5926L20.0776 37.3838H31.0478L24.2173 22.8C26.4942 21.9784 28.4605 20.5405 29.8059 18.7946C31.5653 16.4324 32.0827 13.8649 32.0827 12.0162C32.0827 8.72972 30.5304 6.26485 28.0465 4.62161C25.6662 3.08107 22.5615 2.67026 18.1113 2.67026H0.310633C0.000156153 2.56756 -0.103336 3.08107 0.207141 3.28648L5.69223 5.64864C6.20969 5.75134 6.41667 6.26485 6.31318 6.67567L0.931586 37.3838ZM21.1126 16.3297C20.1811 17.1514 18.7322 17.5622 17.0764 17.5622H14.1786L15.6275 9.55134H17.6973C18.8357 9.55134 20.1811 9.65404 21.2161 10.373C22.1475 10.9892 22.5615 11.9135 22.5615 13.1459C22.5615 14.4811 22.044 15.5081 21.1126 16.3297Z" fill="#E4170F"/>
<path d="M54.1264 2.05405C48.4343 2.05405 43.4667 4.31351 39.948 8.11351C36.3258 12.1189 34.7734 17.2541 34.7734 21.6703C34.7734 31.8378 42.6388 37.7946 51.9531 37.7946C57.6452 37.7946 62.6128 35.5351 66.1315 31.7351C69.7537 27.7297 71.3061 22.5946 71.3061 18.1784C71.3061 8.11351 63.5442 2.15676 54.1264 2.05405ZM58.4731 26.3946C57.0242 28.0378 54.9544 29.2703 52.2636 29.2703C47.5029 29.2703 44.8121 25.4703 44.8121 21.0541C44.8121 18.1784 45.9505 15.3027 47.5029 13.4541C48.9518 11.8108 51.0217 10.5784 53.7125 10.5784C58.4731 10.5784 61.1639 14.3784 61.1639 18.7946C61.2674 21.773 60.0255 24.6486 58.4731 26.3946Z" fill="#E4170F"/>
<path d="M78.2401 37.3838H88.4858C88.4858 37.3838 95.3163 23.0054 96.6617 19.9243H96.7652C96.9722 22.9027 98.5246 37.3838 98.5246 37.3838H108.977L125.95 2.67028H115.808C115.808 2.67028 107.321 20.8486 105.976 23.9297H105.873C105.666 20.9513 103.699 2.67028 103.699 2.67028H96.3512C96.3512 2.67028 87.6579 21.0541 86.416 23.9297H86.3125C86.1055 21.0541 84.4496 2.67028 84.4496 2.67028H68.4083C67.9944 2.67028 67.8909 3.18379 68.3049 3.2865L73.7899 5.64866C74.3074 5.75136 74.5144 6.26488 74.5144 6.67569L78.2401 37.3838Z" fill="#E4170F"/>
<path d="M149.753 10.9892L151.202 2.56757H128.848L122.638 37.3838H145.51L147.062 28.9622H134.229L135.161 23.9297H145.51L146.959 16.0216H136.506L137.438 10.9892H149.753Z" fill="#E4170F"/>
<path d="M156.273 2.87568C156.273 1.23243 157.515 0 159.171 0C160.827 0 162.069 1.23243 162.069 2.87568C162.069 4.51892 160.827 5.75135 159.171 5.75135C157.515 5.75135 156.273 4.51892 156.273 2.87568ZM161.551 2.87568C161.551 1.54054 160.62 0.616216 159.274 0.616216C157.929 0.616216 156.998 1.64324 156.998 2.87568C156.998 4.21081 157.929 5.13514 159.274 5.13514C160.62 5.13514 161.551 4.10811 161.551 2.87568ZM159.171 3.28649H158.861V4.41622H158.136V1.33514H159.378C159.999 1.33514 160.62 1.64324 160.62 2.36216C160.62 2.77297 160.413 3.08108 159.999 3.28649L160.723 4.51892H159.792L159.171 3.28649ZM159.171 2.77297C159.481 2.77297 159.688 2.67027 159.688 2.36216C159.688 2.05405 159.481 1.95135 159.171 1.95135H158.757V2.77297H159.171Z" fill="#E4170F"/>
</g>
<defs>
<clipPath id="clip0_31_226">
<rect width="162.483" height="38" fill="white"/>
</clipPath>
</defs>
</svg>
